<svg width="72" height="72" viewBox="0 0 72 72" fill="none" xmlns="http://www.w3.org/2000/svg">
<rect width="72" height="72" rx="12" fill="#744EBB"/>
<path d="M46.8317 28.661C47.4448 28.661 47.9394 29.15 47.9394 29.7409C47.9394 30.3454 47.4518 30.8344 46.8317 30.8344C46.2047 30.8344 45.7101 30.3454 45.7101 29.7409C45.7101 29.1432 46.2047 28.661 46.8317 28.661ZM36.5139 21C37.3012 21 37.9282 21.618 37.9282 22.3787C37.9282 23.1462 37.2942 23.7574 36.5139 23.7574C35.7406 23.7574 35.1067 23.1462 35.1067 22.3787C35.0997 21.618 35.7406 21 36.5139 21ZM26.1683 28.661C26.7744 28.661 27.283 29.15 27.283 29.7409C27.283 30.3454 26.7744 30.8344 26.1683 30.8344C25.5482 30.8344 25.0466 30.3454 25.0466 29.7409C25.0466 29.1432 25.5482 28.661 26.1683 28.661ZM17 30.1009C17 29.51 17.5016 29.021 18.1217 29.021C18.7347 29.021 19.2363 29.51 19.2363 30.1009C19.2363 30.7053 18.7347 31.1943 18.1217 31.1943C17.4946 31.1943 17 30.7053 17 30.1009ZM47.8976 50.4081C47.6399 50.9921 47.3473 51.1144 46.7551 50.9039C45.9609 50.605 42.1152 49.0905 36.4025 49.0429C30.6897 49.0905 26.844 50.5711 26.0429 50.8699C25.4577 51.0669 25.1651 50.9989 24.9212 50.4081C24.5868 49.6202 24.7192 49.3078 25.2905 49.0361C26.7813 48.3638 30.8848 46.5707 36.1377 46.5707H36.3607H36.3746H36.4094H36.4303H36.4582H36.4791H36.6951C41.9341 46.5707 46.0306 48.3705 47.5423 49.0361C48.0927 49.3078 48.2251 49.6134 47.8976 50.4081ZM54.1259 33.1503L49.1099 46.7202C48.6849 47.8204 48.2599 47.6846 47.5006 47.2635C46.769 46.8356 42.3033 45.0019 36.7926 45.0019H36.1795C30.6758 45.0019 26.217 46.8356 25.4646 47.2635C24.7331 47.6846 24.2942 47.8883 23.8692 46.7949L18.8462 33.1843C18.8462 33.1843 18.4352 32.1248 18.9089 31.9686C19.3478 31.8328 19.6613 32.4236 19.8355 32.7632C20.2465 33.5239 22.3923 37.5582 23.3607 38.6177C24.2245 39.5413 24.9979 39.5685 25.4577 39.4598C26.4609 39.2425 26.8998 38.1355 26.5863 35.1064C26.2728 32.0841 26.1195 31.7037 26.649 31.6018C27.1158 31.5135 27.269 32.2674 27.3944 32.6274C27.5198 32.9873 28.5509 37.2865 30.3065 37.9249C31.686 38.4275 32.7937 37.9725 33.5252 36.3696C34.3403 34.563 35.1484 31.174 35.5038 28.0769C35.8242 25.2176 35.866 24.1649 36.4025 24.1649H36.5557C37.0991 24.1649 37.134 25.3671 37.4684 28.2264C37.8307 31.3302 38.6388 34.6445 39.4469 36.4511C40.1645 38.0607 41.2792 38.4683 42.6656 37.9725C44.4143 37.334 45.4593 33.0145 45.5777 32.6546C45.7101 32.2878 45.8564 31.5271 46.3232 31.6154C46.8666 31.7173 46.6924 32.0976 46.3928 35.1199C46.0793 38.149 46.5182 39.2493 47.5215 39.4734C47.9813 39.5821 48.7476 39.5481 49.6184 38.6313C50.5868 37.5717 52.7256 33.5375 53.1367 32.7768C53.3178 32.4304 53.6313 31.8396 54.0632 31.9822C54.5509 32.1316 54.1259 33.1503 54.1259 33.1503ZM54.8853 31.1943C54.2583 31.1943 53.7567 30.7053 53.7567 30.1009C53.7567 29.51 54.2583 29.021 54.8853 29.021C55.4984 29.021 56 29.51 56 30.1009C56 30.7053 55.4984 31.1943 54.8853 31.1943Z" fill="#FFBF00"/>
</svg>
